# xmcd
# Track frame offsets:
# 150
# 13320
# 26219
# 42237
# 55330
# 70241
# 85402
# 101220
# 117450
# 130453
# 144212
# 156035
# 175394
# 188677
# 201825
# 217753
# 234110
#
# Disc length: 3378 seconds
# Revision: 0
# Processed by: cddbd v1.5.2PL0 Copyright (c) Steve Scherf et al.
# Submitted via: VisiTrax 2.11.1.266 - For more info visit www.synapsa.com
#
DISCID=f20d3011
DTITLE=Roch Voisine - Americana II
DYEAR=2009
DGENRE=Country
TTITLE0=That's How I Got To Memphis
TTITLE1=Don't Think Twice It's All Right
TTITLE2=Take It Easy
TTITLE3=If I Were A Carpenter
TTITLE4=I'm Sorry
TTITLE5=Take Me Home Country Roads
TTITLE6=Song Sung Blue
TTITLE7=Sundown
TTITLE8=Johnny B. Gode
TTITLE9=Pretty Woman
TTITLE10=Heart Of Gold
TTITLE11=Bon Vivant
TTITLE12=That's How I Got To Memphis - Sur La Route De Memphis
TTITLE13=If I Were A Carpenter - Si J'Etais Un Charpentier
TTITLE14=Song Sung Blue - Chanson Bleue
TTITLE15=Sundown - L'amour C'est Comme L'été
TTITLE16=Bon Vivant (Français Anglais)
EXTD=
EXTT0=
EXTT1=
EXTT2=
EXTT3=
EXTT4=
EXTT5=
EXTT6=
EXTT7=
EXTT8=
EXTT9=
EXTT10=
EXTT11=
EXTT12=
EXTT13=
EXTT14=
EXTT15=
EXTT16=
PLAYORDER=
